<svg xmlns="http://www.w3.org/2000/svg" viewBox="0 0 200 200" fill="none">
  <!-- Head -->
  <circle cx="100" cy="65" r="28" fill="#FCE9D6" stroke="#1A1A1A" stroke-width="2.5"/>
  <!-- Hair (geometric block) -->
  <path d="M 76 55 Q 76 38 100 38 Q 124 38 124 55 L 124 60 L 76 60 Z" fill="#1A1A1A"/>
  <!-- Eyes -->
  <circle cx="91" cy="68" r="2.5" fill="#1A1A1A"/>
  <circle cx="109" cy="68" r="2.5" fill="#1A1A1A"/>
  <!-- Smile -->
  <path d="M 93 78 Q 100 82 107 78" stroke="#1A1A1A" stroke-width="2" stroke-linecap="round"/>
  <!-- Body — school shirt (white) -->
  <rect x="68" y="100" width="64" height="60" rx="4" fill="#FFFFFF" stroke="#1A1A1A" stroke-width="2.5"/>
  <!-- Tie (blue accent) -->
  <path d="M 95 100 L 100 108 L 105 100 L 103 135 L 97 135 Z" fill="#2563EB" stroke="#1A1A1A" stroke-width="2" stroke-linejoin="round"/>
  <!-- Backpack strap -->
  <path d="M 70 105 Q 60 130 70 155" stroke="#1A1A1A" stroke-width="2.5" stroke-linecap="round"/>
  <path d="M 130 105 Q 140 130 130 155" stroke="#1A1A1A" stroke-width="2.5" stroke-linecap="round"/>
  <!-- Arms -->
  <rect x="62" y="105" width="10" height="40" rx="5" fill="#FCE9D6" stroke="#1A1A1A" stroke-width="2.5"/>
  <rect x="128" y="105" width="10" height="40" rx="5" fill="#FCE9D6" stroke="#1A1A1A" stroke-width="2.5"/>
</svg>
